<svg width="147" height="27" viewBox="0 0 172 32" fill="none" xmlns="http://www.w3.org/2000/svg">
    <path d="M0.0859375 0.160477H6.06451V14.0205H22.0074C22.0074 14.0205 24.0011 14.0192 24.0011 12.0396C24.0011 10.06 22.0083 10.0596 22.0083 10.0596V0.160034H27.9859V31.84H22.0074V17.98H6.06451C6.06451 17.98 4.0721 17.9792 4.0721 19.9596C4.0721 21.94 6.06495 21.9396 6.06495 21.9396V31.8396H0.0859375V0.160477ZM35.9583 0.160477V31.8405H61.8654L63.8583 27.5945L41.9368 27.8805C41.9368 27.8805 39.944 27.8805 39.944 25.9005C39.944 23.9205 41.9368 23.9205 41.9368 23.9205V17.9809H55.8868V14.0209H41.9368V8.08091C41.9368 8.08091 39.944 8.08091 39.944 6.10091C39.944 4.12091 41.9368 4.12091 41.9368 4.12091L61.8654 4.32111L59.8725 0.160914H35.9583V0.160477ZM71.8292 0.160477V31.8405H77.8078V27.8805C77.8078 27.8805 75.8149 27.8805 75.8149 25.9005C75.8149 23.9205 77.8078 23.9205 77.8078 23.9205V8.08091C77.8078 8.08091 75.8149 8.08091 75.8149 6.10091C75.8149 4.12091 77.8078 4.12091 77.8078 4.12091V0.160914H71.8292V0.160477ZM71.8283 4.12048H85.7783C85.7783 4.12048 95.8254 4.12048 95.8254 16.0005C95.8254 27.8805 85.7783 27.8805 85.7783 27.8805H71.8292V31.8405H85.7783C85.7783 31.8405 99.7283 31.8405 99.7283 16.0005C99.7283 0.160477 85.7783 0.160477 85.7783 0.160477H71.8292L71.8283 4.12048ZM135.601 10.0605C135.601 10.0605 133.608 0.160477 121.651 0.160477C119.876 0.160477 107.701 0.160477 107.701 16.0005C107.701 31.8405 120.342 31.8405 121.651 31.8405C131.615 31.8405 132.901 25.9005 132.901 25.9005L133.607 31.8405H135.6V14.0205H123.643L121.65 17.9805H131.615C131.615 17.9805 131.615 27.5945 121.65 27.5945C119.866 27.5945 111.686 27.6803 111.686 16.0005C111.686 4.32068 119.617 4.12048 121.65 4.12048C129.622 4.12048 131.615 10.0605 131.615 10.0605H135.601ZM143.573 0.160477V31.8405H169.48L171.473 27.5945L149.551 27.8805C149.551 27.8805 147.558 27.8805 147.558 25.9005C147.558 23.9205 149.551 23.9205 149.551 23.9205V17.9809H163.501V14.0209H149.551V8.08091C149.551 8.08091 147.558 8.08091 147.558 6.10091C147.558 4.12091 149.551 4.12091 149.551 4.12091L169.48 4.32111L167.487 0.160914H143.573V0.160477Z" fill="#0047BB"/>
</svg>
