<svg width="110" height="41" viewBox="0 0 110 41" fill="none" xmlns="http://www.w3.org/2000/svg">
<path d="M0 20.139L20.4124 40.278V20.139H40.8247L20.4124 0L0 20.139Z" fill="#0047BB"/>
<path d="M24.2114 27.6912H33.1702L37.0259 23.8872H24.2114V27.6912Z" fill="#0047BB"/>
<path d="M24.2114 36.5297L29.3712 31.439H24.2114V36.5297Z" fill="#0047BB"/>
<path d="M86.9227 27.02C86.9227 20.1392 78.8145 20.1392 78.8145 20.1392H74.0516H72.1805H70.3093V40.2782H74.1083V33.9567H77.8506L82.1031 40.2782H86.9794L82.3299 33.3414C84.4846 32.5582 86.9227 30.824 86.9227 27.02ZM78.8145 30.2087H74.0516V23.8873H78.8145C78.8145 23.8873 82.897 23.8873 82.897 27.0759C82.897 30.2087 78.8145 30.2087 78.8145 30.2087Z" fill="#0047BB"/>
<path d="M93.3867 20.1392V23.8873H99.7939V40.2782H103.593V23.8873H110V20.1392H93.3867Z" fill="#0047BB"/>
<path d="M53.6959 20.1392C48.0825 20.1392 43.4897 24.6704 43.4897 30.2087C43.4897 35.7469 48.0825 40.2782 53.6959 40.2782C59.3093 40.2782 63.9021 35.7469 63.9021 30.2087C63.9021 24.6145 59.3093 20.1392 53.6959 20.1392ZM60.0465 30.2646C59.9897 33.7889 57.098 36.586 53.5258 36.586C49.9537 36.5301 47.1186 33.677 47.1186 30.1527C47.1753 26.6284 50.0671 23.8313 53.6392 23.8313C57.2114 23.8872 60.0465 26.7403 60.0465 30.2646Z" fill="#0047BB"/>
</svg>
