<svg width="112" height="22" viewBox="0 0 112 22" fill="none" xmlns="http://www.w3.org/2000/svg">
    <path d="M0.570312 0.920204H4.42746V9.7402H14.7132C14.7132 9.7402 15.9995 9.73936 15.9995 8.47964C15.9995 7.21992 14.7137 7.21964 14.7137 7.21964V0.919922H18.5703V21.0799H14.7132V12.2599H4.42746C4.42746 12.2599 3.14203 12.2594 3.14203 13.5196C3.14203 14.7799 4.42774 14.7796 4.42774 14.7796V21.0796H0.570312V0.920204ZM23.7137 0.920204V21.0802H40.428L41.7137 18.3782L27.5709 18.5602C27.5709 18.5602 26.2852 18.5602 26.2852 17.3002C26.2852 16.0402 27.5709 16.0402 27.5709 16.0402V12.2605H36.5709V9.74048H27.5709V5.96048C27.5709 5.96048 26.2852 5.96048 26.2852 4.70048C26.2852 3.44048 27.5709 3.44048 27.5709 3.44048L40.428 3.56788L39.1423 0.920482H23.7137V0.920204ZM46.8563 0.920204V21.0802H50.7135V18.5602C50.7135 18.5602 49.4277 18.5602 49.4277 17.3002C49.4277 16.0402 50.7135 16.0402 50.7135 16.0402V5.96048C50.7135 5.96048 49.4277 5.96048 49.4277 4.70048C49.4277 3.44048 50.7135 3.44048 50.7135 3.44048V0.920482H46.8563V0.920204ZM46.8557 3.4402H55.8557C55.8557 3.4402 62.3377 3.4402 62.3377 11.0002C62.3377 18.5602 55.8557 18.5602 55.8557 18.5602H46.8563V21.0802H55.8557C55.8557 21.0802 64.8557 21.0802 64.8557 11.0002C64.8557 0.920204 55.8557 0.920204 55.8557 0.920204H46.8563L46.8557 3.4402ZM87.9992 7.2202C87.9992 7.2202 86.7135 0.920204 78.9992 0.920204C77.854 0.920204 69.9992 0.920204 69.9992 11.0002C69.9992 21.0802 78.1552 21.0802 78.9992 21.0802C85.4277 21.0802 86.2572 17.3002 86.2572 17.3002L86.7132 21.0802H87.9989V9.7402H80.2846L78.9989 12.2602H85.4275C85.4275 12.2602 85.4275 18.3782 78.9989 18.3782C77.8475 18.3782 72.5703 18.4328 72.5703 11.0002C72.5703 3.5676 77.6872 3.4402 78.9989 3.4402C84.1417 3.4402 85.4275 7.2202 85.4275 7.2202H87.9992ZM93.1423 0.920204V21.0802H109.857L111.142 18.3782L96.9995 18.5602C96.9995 18.5602 95.7137 18.5602 95.7137 17.3002C95.7137 16.0402 96.9995 16.0402 96.9995 16.0402V12.2605H105.999V9.74048H96.9995V5.96048C96.9995 5.96048 95.7137 5.96048 95.7137 4.70048C95.7137 3.44048 96.9995 3.44048 96.9995 3.44048L109.857 3.56788L108.571 0.920482H93.1423V0.920204Z" fill="#0047BB"/>
</svg>
